<?xml version="1.0" standalone="no"?>
<!DOCTYPE svg PUBLIC "-//W3C//DTD SVG 20010904//EN"
 "http://www.w3.org/TR/2001/REC-SVG-20010904/DTD/svg10.dtd">
<svg version="1.0" xmlns="http://www.w3.org/2000/svg"
 width="500.000000pt" height="500.000000pt" viewBox="0 0 500.000000 500.000000"
 preserveAspectRatio="xMidYMid meet">
<metadata>
Created by potrace 1.14, written by Peter Selinger 2001-2017
</metadata>
<g transform="translate(0.000000,500.000000) scale(0.100000,-0.100000)"
fill="#000000" stroke="none">
<path d="M4070 4823 c1 -202 -9 -408 -18 -411 -7 -2 -12 -8 -12 -13 0 -6 5 -7
11 -3 12 7 10 -69 -5 -236 -3 -31 -1 -44 3 -30 9 33 19 15 18 -33 -1 -40 -10
-47 -26 -19 -6 9 -11 13 -12 7 -1 -5 -5 10 -9 35 -7 45 -7 45 -8 -16 -2 -45
-6 -63 -17 -68 -10 -4 -14 -13 -10 -28 3 -13 2 -54 -3 -91 -5 -39 -5 -70 0
-73 5 -3 1 -12 -9 -19 -10 -7 -22 -11 -27 -8 -5 4 -7 -15 -3 -45 8 -66 -7
-122 -33 -122 -11 0 -20 5 -20 11 0 8 -5 8 -15 -1 -9 -7 -15 -29 -15 -54 0
-23 -5 -47 -12 -54 -9 -9 -9 -12 0 -12 7 0 12 -7 12 -16 0 -8 -4 -12 -10 -9
-6 3 -10 -4 -10 -16 0 -12 3 -19 7 -16 7 8 33 -11 33 -25 0 -5 -5 -6 -11 -2
-7 4 -10 -4 -7 -22 2 -19 -1 -28 -10 -27 -11 3 -17 -30 -12 -66 4 -31 -11 -81
-25 -81 -8 0 -15 5 -15 11 0 5 -5 7 -11 3 -7 -4 -9 -21 -5 -45 6 -37 -6 -55
-17 -26 -3 6 -6 2 -6 -10 -1 -13 4 -23 9 -23 6 0 10 -7 10 -15 0 -10 10 -15
34 -15 19 0 38 -4 41 -10 4 -6 -8 -10 -28 -10 -41 0 -45 -4 -39 -35 3 -20 10
-25 33 -25 16 0 29 -4 29 -10 0 -5 -13 -10 -30 -10 l-30 0 1 -62 c1 -35 3 -55
6 -45 2 9 8 17 13 17 5 0 7 -7 4 -15 -5 -11 1 -15 25 -15 29 0 31 3 31 35 0
28 -4 35 -20 35 -11 0 -20 -4 -20 -10 0 -5 -7 -10 -15 -10 -8 0 -15 9 -15 20
0 16 7 20 33 21 33 2 62 4 85 7 6 1 12 7 12 12 0 6 -3 9 -7 9 -5 -1 -21 -1
-36 0 -31 1 -28 21 3 21 10 0 21 8 23 18 4 16 5 16 6 0 0 -10 7 -18 15 -18 18
0 21 -12 21 -95 l0 -70 -97 -3 -98 -3 0 137 c0 76 -3 135 -6 131 -3 -3 -5 -71
-5 -150 1 -88 -2 -148 -8 -152 -11 -6 -12 -4 -37 125 -9 47 -39 159 -66 250
-28 91 -75 248 -105 349 -59 202 -71 225 -208 389 -56 67 -76 84 -109 93 -23
5 -60 17 -83 26 -31 11 -64 14 -119 11 -78 -5 -113 2 -170 37 l-32 19 1 185
c1 159 -3 199 -21 275 -21 83 -74 210 -93 222 -5 3 -6 -29 -2 -72 l6 -76 -53
7 -53 7 20 -28 c11 -16 23 -41 26 -56 4 -14 10 -33 13 -42 5 -14 2 -15 -21 -6
-19 7 -31 7 -40 0 -7 -6 -24 -8 -38 -5 -22 6 -25 3 -31 -34 -5 -31 -11 -41
-25 -41 -16 0 -18 -5 -11 -34 7 -30 4 -39 -22 -65 -17 -17 -34 -31 -39 -31
-14 0 -10 44 6 66 8 10 14 28 14 39 -1 16 -3 15 -13 -8 -7 -15 -16 -24 -20
-20 -11 11 4 -238 16 -260 5 -10 6 -26 3 -36 -6 -21 -62 -51 -94 -51 -12 0
-38 -7 -58 -15 -19 -8 -46 -15 -59 -15 -12 0 -25 -4 -29 -9 -3 -5 -30 -17 -60
-25 -46 -14 -63 -26 -112 -82 -72 -82 -76 -88 -84 -149 -4 -27 -11 -63 -17
-80 -27 -76 -56 -196 -63 -265 -6 -61 -15 -90 -48 -150 -46 -84 -49 -104 -21
-140 20 -26 27 -56 10 -45 -5 3 -26 37 -46 76 -20 38 -39 68 -41 65 -3 -2 0
-13 6 -24 6 -12 11 -51 11 -88 l0 -68 -37 35 c-36 34 -36 27 0 -23 16 -22 19
-37 14 -79 -7 -61 3 -79 44 -79 27 0 29 3 29 40 0 52 16 52 24 -1 7 -42 -16
-139 -40 -169 -6 -8 -22 -35 -34 -58 -12 -24 -24 -42 -27 -39 -3 3 2 20 11 38
9 18 19 50 22 71 4 21 12 38 19 38 12 0 25 29 25 58 0 7 -13 12 -30 12 -19 0
-43 12 -67 33 l-38 32 28 -33 c33 -41 36 -86 6 -102 -16 -9 -25 -8 -40 6 -10
9 -22 14 -25 11 -3 -3 15 -21 41 -39 l47 -33 -8 -55 c-4 -30 -7 -67 -7 -82 0
-17 -4 -25 -11 -21 -6 3 1 -7 16 -23 23 -26 25 -35 21 -81 -4 -42 -1 -57 16
-81 l21 -30 -29 -93 c-16 -52 -41 -127 -55 -166 -15 -40 -38 -123 -51 -185
-14 -62 -37 -143 -53 -180 l-27 -68 -125 1 c-82 1 -113 4 -90 9 l35 7 -32 2
c-18 0 -33 6 -33 11 0 6 45 10 113 11 61 1 104 3 95 6 -12 3 -18 14 -18 34 0
26 -3 29 -20 24 -11 -3 -20 -2 -20 3 0 5 -11 14 -25 20 l-26 12 3 275 c2 151
-1 275 -5 275 -5 0 -6 9 -2 19 4 14 1 19 -12 17 -15 -1 -19 9 -24 59 -3 33 -7
51 -8 40 -4 -42 -20 11 -23 74 -4 100 -16 45 -14 -67 1 -83 4 -105 17 -112 29
-17 65 -50 47 -44 -15 5 -18 0 -18 -30 0 -40 16 -49 23 -13 2 12 6 -98 8 -246
l4 -267 -42 0 -43 0 0 140 c0 128 -2 140 -18 140 -10 0 -24 6 -31 13 -10 10
-15 8 -26 -6 -7 -10 -12 -26 -10 -35 2 -9 4 -68 4 -130 1 -86 4 -113 14 -110
8 3 14 42 17 126 7 166 24 163 28 -5 3 -130 2 -132 -20 -136 -13 -2 0 -5 27
-7 28 -1 64 -6 80 -10 24 -6 17 -8 -35 -10 -36 -1 -74 -5 -85 -10 -18 -7 -19
-8 -2 -15 14 -6 17 -21 18 -94 1 -120 15 -268 20 -216 2 22 4 58 5 80 0 22 2
59 2 83 2 33 6 42 20 42 13 0 14 2 4 9 -19 11 8 21 58 21 49 0 62 -17 18 -23
-23 -3 -19 -4 14 -4 28 0 46 5 45 11 -1 6 15 12 36 14 47 4 57 -17 28 -54 -12
-15 -21 -38 -21 -51 0 -13 -12 -40 -26 -58 -14 -19 -31 -57 -39 -84 -17 -67
-49 -116 -83 -129 -141 -52 -148 -56 -213 -124 -90 -93 -99 -91 -98 22 0 49
-4 97 -10 107 -13 23 -14 20 -11 -114 2 -99 0 -113 -15 -113 -14 0 -15 14 -11
128 2 70 5 128 5 130 1 2 10 1 20 -3 11 -3 22 -1 26 4 3 6 -9 14 -26 18 -30 8
-31 9 -14 26 10 10 24 16 31 13 7 -3 16 -1 19 4 3 5 12 7 19 4 8 -3 17 0 21 7
6 9 -13 10 -86 4 -52 -4 -130 -8 -174 -9 l-80 -1 0 45 c0 31 4 44 13 43 6 -2
12 2 12 7 0 6 -25 10 -56 10 l-56 0 4 -55 3 -55 -47 0 c-27 0 -48 -4 -48 -10
0 -6 55 -10 146 -10 95 0 143 -3 139 -10 -4 -7 -50 -8 -130 -4 -67 4 -131 4
-141 0 -18 -7 -17 -9 5 -27 14 -12 18 -19 10 -20 -8 0 -5 -4 6 -9 11 -5 67
-10 125 -11 124 -2 107 -7 -42 -11 -83 -3 -108 0 -108 9 0 19 -13 16 -27 -5
-6 -11 -8 -24 -3 -33 5 -8 4 -19 -2 -26 -7 -9 -7 -13 1 -13 14 0 14 -43 0 -57
-14 -14 -3 -67 17 -84 8 -6 17 -10 20 -7 2 3 0 45 -6 94 -6 58 -6 92 0 98 7 7
10 5 10 -4 0 -11 3 -11 12 -2 14 14 68 16 68 3 0 -4 -5 -32 -10 -61 -6 -30 -6
-58 -1 -64 5 -6 11 -71 14 -145 5 -131 4 -135 -19 -158 -18 -18 -19 -23 -7
-23 13 0 13 -3 3 -15 -7 -9 -10 -18 -7 -21 3 -3 13 8 23 24 10 18 23 28 31 25
9 -3 11 0 7 10 -6 16 41 45 151 93 45 20 51 21 56 6 5 -13 7 -12 11 6 8 30 26
28 34 -4 5 -21 -1 -33 -32 -65 -56 -58 -90 -75 -172 -88 -71 -11 -211 -65
-199 -77 3 -3 15 0 27 6 29 15 85 9 85 -10 0 -11 -20 -17 -83 -25 -105 -13
-96 -27 12 -21 69 4 73 4 31 -4 -27 -5 -87 -6 -133 -3 -51 4 -82 2 -82 -4 0
-14 98 -23 240 -23 64 0 137 -3 162 -6 43 -6 45 -7 34 -31 -9 -20 -16 -24 -42
-20 -39 6 -66 -8 -44 -23 10 -6 -79 -10 -269 -10 -156 0 -282 -2 -279 -5 3 -3
244 -6 537 -5 351 0 531 -3 531 -10 0 -5 -4 -10 -10 -10 -5 0 -10 -7 -10 -15
0 -8 -3 -15 -7 -16 -9 -1 -14 -2 -108 -24 -109 -26 -108 -30 13 -33 62 -1 112
-7 112 -12 0 -6 -91 -11 -223 -13 -212 -2 -210 -2 53 -3 151 -1 257 2 235 5
-33 5 -23 8 54 14 124 9 259 9 265 -1 2 -4 -7 -9 -21 -10 -15 -1 -28 -4 -30
-5 -2 -2 77 -2 174 0 173 3 189 2 130 -11 -15 -4 -25 -11 -22 -16 4 -6 -30
-11 -87 -12 -88 -1 -86 -1 47 -9 77 -5 160 -6 185 -2 25 3 162 5 305 5 143 0
322 2 398 6 77 4 141 4 143 1 2 -4 45 -7 96 -8 135 -3 122 -11 -17 -11 -65 0
-116 -2 -114 -5 3 -2 53 -5 112 -7 167 -3 138 -16 -78 -34 -38 -3 -71 -7 -73
-9 -2 -2 27 -6 65 -10 37 -3 96 -10 131 -14 34 -4 62 -4 62 1 0 5 9 4 19 -2
11 -5 35 -10 53 -11 18 -1 44 -5 58 -10 17 -6 2 -7 -48 -5 -51 2 -70 0 -63 -7
6 -6 65 -11 143 -11 119 0 145 3 248 31 94 26 195 45 283 54 7 1 -1 5 -18 8
-21 5 3 10 80 15 163 11 159 16 -10 12 -208 -4 -111 10 155 23 248 11 316 7
323 -19 3 -10 31 -38 62 -62 32 -23 78 -61 103 -83 25 -22 43 -35 41 -30 -3 6
-26 54 -52 109 -47 98 -55 126 -38 126 5 0 13 14 16 32 4 18 19 47 34 65 l26
33 113 0 c73 0 111 4 107 10 -4 6 -57 10 -127 10 l-120 0 -29 31 c-16 17 -26
35 -23 40 3 5 86 9 185 9 113 0 179 4 179 10 0 6 -64 10 -172 10 -94 0 -168 3
-165 7 4 4 36 6 72 5 52 -2 65 1 65 13 0 21 -30 31 -41 14 -5 -9 -9 -10 -9 -2
0 6 -10 14 -22 16 -13 2 13 5 57 7 67 2 74 4 45 11 -28 6 -23 7 23 4 49 -3 56
-1 47 10 -7 8 -27 13 -51 12 -21 -2 -39 1 -39 6 0 5 -31 6 -69 3 -67 -6 -69
-6 -73 19 -3 14 -1 25 3 25 5 0 9 11 9 25 0 21 8 26 51 39 28 9 56 14 62 13 7
-1 11 4 10 10 -2 8 8 13 26 13 26 0 30 3 29 30 -1 17 -6 30 -12 30 -6 0 -5 4
3 9 11 7 7 17 -19 50 -18 23 -38 41 -43 41 -5 0 -6 7 -3 16 4 12 2 15 -9 10
-8 -3 -15 -1 -15 5 0 24 -25 36 -60 28 -20 -5 -39 -4 -44 1 -6 6 -19 10 -30
10 -17 0 -18 2 -6 10 13 8 13 10 1 10 -11 0 -9 4 5 15 19 14 19 14 -3 15 -14
0 -23 8 -26 23 -3 12 -2 -4 1 -35 3 -40 1 -58 -7 -58 -6 0 -11 9 -11 19 0 22
-13 34 -24 24 -4 -4 -22 -6 -41 -5 l-33 3 5 -40 6 -41 -46 0 c-45 0 -46 1 -53
35 -3 19 -4 44 -1 55 3 11 2 20 -2 20 -4 0 -15 41 -25 92 -9 50 -24 104 -32
119 -20 40 -49 171 -84 380 -16 99 -33 185 -36 190 -16 26 -63 214 -54 217 13
5 13 69 -1 77 -7 5 -8 -5 -4 -32 11 -68 -21 -12 -45 80 -11 45 -34 121 -51
170 -16 48 -29 89 -29 92 0 2 14 2 32 -2 29 -6 31 -5 25 18 -4 13 -7 39 -7 57
0 25 -4 32 -19 32 -11 0 -23 5 -27 11 -5 8 1 10 20 7 25 -5 26 -3 26 39 0 36
-3 44 -15 40 -8 -4 -17 -2 -20 3 -4 6 -19 10 -36 10 -19 0 -29 5 -29 15 0 8 9
15 19 15 11 0 23 5 26 10 8 14 185 13 185 -1 0 -5 5 -7 10 -4 13 8 13 55 0 55
-11 0 -10 592 1 630 5 17 8 6 8 -38 1 -35 4 -61 9 -59 4 3 7 46 7 96 0 50 3
91 7 91 8 0 19 -84 17 -133 -1 -20 1 -40 5 -44 11 -11 26 19 20 42 -3 11 -1
32 5 45 7 18 10 -17 11 -130 2 -185 13 -244 23 -126 4 43 7 117 7 163 0 60 3
82 11 77 7 -4 10 -27 7 -63 -3 -31 -1 -67 3 -81 l7 -25 7 23 c9 27 29 30 22 3
-4 -15 -1 -18 11 -13 14 5 15 4 2 -10 -8 -9 -17 -16 -20 -16 -3 0 -9 0 -15 -1
-6 -1 -9 -70 -7 -191 l3 -190 48 0 c83 0 201 13 201 21 0 5 -9 9 -20 9 -23 0
-27 28 -5 36 8 4 15 12 15 19 0 7 7 18 15 25 13 11 15 5 15 -41 0 -30 3 -71 6
-91 6 -37 6 -37 -22 -29 -16 4 -96 5 -178 2 -142 -6 -149 -7 -157 -28 -7 -20
-5 -22 19 -18 15 2 95 6 179 9 l151 6 10 -38 c7 -28 10 21 11 193 0 204 -1
228 -14 211 -15 -19 -15 -19 -15 2 0 12 6 23 13 23 6 1 -1 4 -18 8 -20 4 -30
12 -31 26 -2 47 -5 54 -33 63 -27 10 -29 15 -33 69 -2 32 0 86 3 119 3 34 3
79 -1 100 -7 35 -8 33 -9 -23 -1 -80 -21 -83 -21 -4 0 50 -3 61 -25 77 -20 15
-25 27 -25 65 0 31 -5 49 -14 52 -10 4 -14 20 -11 59 2 53 -17 105 -28 76 -4
-9 -6 -9 -6 2 -1 9 4 21 10 27 13 13 3 67 -10 58 -11 -6 -21 18 -21 51 0 15 6
24 15 24 13 0 12 4 -5 22 -11 12 -20 31 -21 42 0 12 -2 37 -4 56 -11 95 -12
161 -4 166 13 8 11 24 -3 22 -8 -2 -12 23 -12 84 -1 49 2 88 6 88 4 0 6 9 5
20 -1 11 -4 20 -8 20 -4 0 -7 33 -7 73 0 128 -2 147 -12 147 -5 0 -10 -12 -10
-27z m-1375 -183 c12 -19 -12 -10 -31 11 -19 22 -19 22 3 10 12 -6 25 -16 28
-21z m-40 -249 l-27 -26 23 39 c13 22 25 34 27 27 2 -7 -8 -25 -23 -40z m-70
-139 c-3 -3 -12 1 -20 9 -12 11 -13 22 -4 54 18 70 24 71 27 6 2 -35 0 -66 -3
-69z m-102 -81 c-1 -1 -6 0 -12 4 -12 7 -15 68 -3 79 6 7 21 -73 15 -83z m117
66 c19 0 50 3 68 8 31 7 32 6 32 -23 0 -17 -7 -37 -15 -46 -8 -8 -15 -18 -15
-23 0 -20 -38 -29 -92 -23 -32 3 -60 9 -64 13 -4 4 -9 30 -12 58 l-5 52 34 -8
c19 -5 50 -8 69 -8z m1510 -106 c0 -11 -4 -23 -10 -26 -6 -4 -10 5 -10 19 0
14 5 26 10 26 6 0 10 -9 10 -19z m-1645 -28 c4 -14 2 -23 -4 -23 -6 0 -11 3
-11 8 0 4 -3 18 -6 32 -8 31 11 16 21 -17z m-52 -59 c-2 -7 6 -20 19 -30 13
-11 29 -32 36 -48 13 -29 13 -29 -31 10 -59 52 -75 84 -50 101 15 12 18 11 24
-4 3 -10 4 -23 2 -29z m1687 36 c0 -5 -5 -10 -11 -10 -5 0 -7 5 -4 10 3 6 8
10 11 10 2 0 4 -4 4 -10z m-1602 -43 c21 -22 48 -84 41 -91 -8 -8 -90 94 -84
104 9 15 19 12 43 -13z m-198 -18 c12 -16 20 -33 17 -36 -7 -6 -77 46 -77 58
0 21 40 6 60 -22z m-105 -1 c-3 -8 12 -20 37 -30 60 -26 42 -31 -41 -12 -76
17 -79 21 -28 40 18 6 33 12 34 13 1 0 0 -5 -2 -11z m289 -126 c-1 -2 -16 3
-32 12 -26 14 -102 105 -102 123 0 4 31 -24 68 -62 38 -39 68 -71 66 -73z
m336 108 c0 -12 -73 -50 -95 -50 -22 0 -115 -48 -142 -73 -22 -20 -31 -14 -15
9 7 11 218 115 250 123 1 1 2 -3 2 -9z m-205 -50 c-10 -11 -20 -18 -23 -15 -3
3 3 14 13 25 10 11 20 18 23 15 3 -3 -3 -14 -13 -25z m-464 -4 l28 -24 -47 -7
c-26 -3 -57 -13 -69 -21 -12 -8 -25 -14 -27 -14 -10 0 36 70 53 80 24 14 30
12 62 -14z m1887 7 c-2 -9 -8 -18 -15 -20 -7 -3 -9 3 -6 16 6 25 26 28 21 4z
m92 2 c0 -8 -4 -15 -10 -15 -5 0 -10 7 -10 15 0 8 5 15 10 15 6 0 10 -7 10
-15z m-38 -17 c-7 -7 -12 -8 -12 -2 0 6 3 14 7 17 3 4 9 5 12 2 2 -3 -1 -11
-7 -17z m-1695 -5 c3 -7 -3 -9 -16 -6 -12 3 -21 10 -21 15 0 13 32 6 37 -9z
m500 1 c-3 -3 -12 -4 -19 -1 -8 3 -5 6 6 6 11 1 17 -2 13 -5z m-387 -29 c13
-14 21 -25 18 -25 -2 0 -15 11 -28 25 -13 14 -21 25 -18 25 2 0 15 -11 28 -25z
m-507 -28 c-11 -12 -25 -31 -31 -42 -6 -11 -12 -14 -12 -7 0 17 51 84 58 77 3
-3 -4 -15 -15 -28z m392 17 c49 -8 135 -43 135 -55 0 -5 -5 -9 -10 -9 -6 0 -8
-10 -4 -24 3 -13 1 -27 -4 -30 -13 -8 -102 41 -124 68 -10 12 -18 16 -18 10 0
-6 -34 -40 -75 -75 l-76 -64 93 -5 c77 -5 100 -10 130 -30 21 -14 38 -28 38
-31 0 -4 -20 -10 -44 -13 -24 -4 -75 -22 -114 -41 l-71 -34 -36 41 c-47 55
-45 84 11 193 51 100 67 118 104 111 14 -3 43 -8 65 -12z m445 -34 c0 -37 -26
-40 -75 -10 l-32 20 -11 -25 c-6 -14 -18 -25 -26 -25 -8 0 -35 -9 -59 -19 -43
-19 -46 -19 -61 -2 -21 23 -20 28 9 47 24 16 154 41 223 43 29 1 32 -2 32 -29z
m-693 13 c-3 -5 -10 -26 -16 -49 -8 -31 -22 -48 -58 -74 -27 -18 -60 -45 -75
-58 l-28 -26 0 30 c0 17 7 54 16 83 14 48 19 54 67 76 50 23 103 33 94 18z
m1879 -49 c-3 -9 -6 -21 -6 -27 0 -8 -3 -8 -10 -1 -12 12 -3 44 12 44 6 0 7
-7 4 -16z m-945 -91 c13 -16 12 -17 -3 -4 -17 13 -22 21 -14 21 2 0 10 -8 17
-17z m-955 -18 c-20 -15 -36 -19 -36 -10 0 5 38 23 50 24 3 0 -4 -6 -14 -14z
m1930 -28 c0 -30 -2 -32 -35 -32 -45 0 -52 17 -12 29 17 5 31 15 31 22 0 30
15 12 16 -19z m-1313 11 c14 -11 15 -19 7 -50 -6 -21 -14 -39 -18 -41 -4 -2
-45 1 -92 7 l-85 11 36 27 c38 30 95 57 120 58 8 0 23 -6 32 -12z m1388 3 c10
17 23 5 15 -16 -7 -21 -35 -30 -48 -17 -7 7 -6 15 3 25 8 9 16 11 18 5 2 -6 7
-5 12 3z m-2091 -25 c0 -5 -69 -46 -76 -46 -14 0 12 24 40 36 36 15 36 15 36
10z m2158 -13 c-10 -2 -26 -2 -35 0 -10 3 -2 5 17 5 19 0 27 -2 18 -5z m-2068
-28 c-7 -8 -18 -15 -24 -15 -6 0 -2 7 8 15 25 19 32 19 16 0z m2000 -16 c0 -5
-7 -9 -15 -9 -15 0 -20 12 -9 23 8 8 24 -1 24 -14z m-2124 -74 c-33 -30 -61
-55 -62 -55 -2 0 0 10 4 21 8 22 89 88 107 89 6 0 -17 -25 -49 -55z m1193 16
c11 -7 9 -11 -9 -21 -18 -10 -24 -9 -31 1 -15 25 11 38 40 20z m-739 -18 c0
-9 12 -37 27 -62 20 -35 22 -42 7 -29 -17 15 -23 15 -53 2 -45 -19 -60 -18
-90 9 l-26 22 23 -26 c35 -40 8 -46 -28 -7 l-31 33 19 -40 20 -40 -24 -28
c-30 -35 -71 -37 -80 -3 -7 28 40 102 71 112 11 4 22 10 25 14 5 8 117 57 133
59 4 1 7 -6 7 -16z m185 8 c3 -5 19 -12 35 -16 17 -4 30 -10 30 -14 0 -14 -59
-41 -90 -41 -17 0 -43 -9 -57 -20 -14 -11 -29 -20 -32 -20 -13 0 1 85 17 103
16 18 86 24 97 8z m1555 -12 c0 -5 -9 -9 -20 -9 -22 0 -27 16 -7 23 15 5 27
-1 27 -14z m-2147 -21 c-5 -7 -10 -24 -11 -38 -2 -59 -23 -96 -69 -124 -25
-15 -47 -26 -48 -24 -2 2 5 28 15 58 11 30 19 63 20 73 0 9 6 17 13 17 6 0 26
11 42 25 32 26 54 33 38 13z m2147 -28 c0 -5 -7 -10 -15 -10 -8 0 -15 5 -15
10 0 6 7 10 15 10 8 0 15 -4 15 -10z m-1446 -42 c-22 -23 -24 -29 -10 -24 17
6 17 4 5 -11 -7 -10 -14 -19 -15 -21 -1 -1 -7 4 -13 12 -10 11 -6 21 20 50 17
20 34 34 37 31 3 -3 -8 -19 -24 -37z m1401 -18 c-4 -20 -11 -28 -16 -23 -6 6
-5 20 2 37 7 14 14 24 17 22 2 -3 1 -19 -3 -36z m-1944 -11 l-9 -34 -1 31 c-1
17 2 34 6 37 12 13 14 -1 4 -34z m1745 -146 c-8 -20 -106 -18 -106 2 0 16 16
21 22 6 2 -6 18 -7 37 -3 33 7 34 8 36 62 3 107 9 124 12 36 2 -49 2 -95 -1
-103z m-43 137 c3 -11 1 -20 -4 -20 -5 0 -9 9 -9 20 0 11 2 20 4 20 2 0 6 -9
9 -20z m-1480 -118 c-59 -50 -107 -82 -120 -82 -9 0 -13 13 -13 42 0 37 5 47
49 89 27 26 62 53 78 61 l28 13 3 -50 c3 -44 0 -52 -25 -73z m142 118 c3 -5
-2 -10 -12 -10 -13 0 -8 -6 15 -20 37 -23 37 -20 16 -68 l-15 -37 -20 24 c-10
13 -19 20 -19 17 0 -4 -4 -4 -10 -1 -6 4 -5 18 4 38 14 35 16 42 16 57 0 6 4
10 9 10 6 0 13 -4 16 -10z m-253 -42 c-7 -7 -12 -8 -12 -2 0 14 12 26 19 19 2
-3 -1 -11 -7 -17z m1548 1 c0 -5 -4 -9 -10 -9 -5 0 -10 7 -10 16 0 8 5 12 10
9 6 -3 10 -10 10 -16z m-1840 -9 c0 -15 -77 -96 -85 -89 -9 10 54 99 71 99 8
0 14 -5 14 -10z m200 -47 c0 -7 -4 -13 -10 -13 -5 0 -10 6 -10 14 0 8 -3 23
-6 33 -5 16 -4 16 10 -1 9 -11 16 -26 16 -33z m1640 11 c0 -8 -4 -12 -10 -9
-5 3 -10 10 -10 16 0 5 5 9 10 9 6 0 10 -7 10 -16z m435 -24 c3 -6 -4 -10 -17
-10 -18 0 -20 2 -8 10 19 12 18 12 25 0z m-72 -17 c-7 -2 -19 -2 -25 0 -7 3
-2 5 12 5 14 0 19 -2 13 -5z m-2010 -23 c-3 -12 -8 -19 -11 -16 -5 6 5 36 12
36 2 0 2 -9 -1 -20z m49 -22 c-10 -10 -44 0 -37 12 3 5 14 6 26 3 12 -3 17 -9
11 -15z m201 -61 c-2 -4 -12 -6 -21 -5 -9 2 -17 -3 -18 -9 -1 -7 -2 -18 -3
-23 0 -6 -18 -18 -38 -28 -21 -9 -42 -23 -47 -31 -7 -11 -10 -11 -17 0 -14 22
-11 69 5 69 8 0 17 7 20 15 3 9 12 15 19 13 7 -2 30 17 52 41 l40 44 6 -39 c4
-21 5 -42 2 -47z m58 16 c-9 -16 -10 -15 -11 9 0 14 3 35 8 45 6 15 8 14 10
-9 2 -15 -1 -35 -7 -45z m1429 16 c0 -23 -6 -32 -26 -39 -20 -8 -25 -16 -22
-34 4 -19 1 -22 -14 -18 -21 5 -24 18 -5 25 10 4 10 7 0 18 -7 7 -13 9 -13 3
0 -5 -20 -8 -45 -6 -68 6 -54 22 19 22 36 0 67 4 70 8 12 19 -14 32 -67 33
-79 2 -71 17 11 21 86 4 92 2 92 -33z m-2026 22 c7 -11 -22 -23 -35 -15 -5 3
-9 9 -9 15 0 12 37 12 44 0z m246 -6 c-7 -8 -18 -15 -24 -15 -6 0 -2 7 8 15
25 19 32 19 16 0z m560 11 c0 -3 -4 -8 -10 -11 -5 -3 -10 -1 -10 4 0 6 5 11
10 11 6 0 10 -2 10 -4z m-765 -24 c-3 -3 -11 0 -18 7 -9 10 -8 11 6 5 10 -3
15 -9 12 -12z m1489 -12 c-10 -16 -19 -28 -21 -26 -6 6 20 56 29 56 5 0 1 -13
-8 -30z m-1594 -51 c0 -32 -3 -39 -20 -39 -17 0 -19 6 -18 44 2 36 5 42 20 38
13 -3 18 -14 18 -43z m1680 24 c0 -9 -3 -13 -7 -10 -3 4 -13 1 -22 -5 -10 -8
-9 -4 3 10 23 26 26 27 26 5z m-1250 -2 c0 -5 -9 -7 -20 -4 -11 3 -20 7 -20 9
0 2 9 4 20 4 11 0 20 -4 20 -9z m-35 -42 c4 -6 5 -12 3 -14 -7 -7 -48 7 -48
16 0 13 37 11 45 -2z m277 -60 c-24 -42 -32 -36 -32 23 l0 51 24 -22 c23 -22
24 -24 8 -52z m888 65 c0 -9 -32 -33 -44 -34 -5 0 -1 9 9 20 18 20 35 26 35
14z m734 -19 c-4 -9 0 -15 7 -15 11 0 11 -3 -1 -10 -12 -8 -13 -12 -2 -19 11
-7 11 -9 -2 -14 -13 -5 -16 1 -16 33 0 22 4 40 10 40 5 0 7 -7 4 -15z m-1869
-5 c3 -5 1 -10 -4 -10 -6 0 -11 5 -11 10 0 6 2 10 4 10 3 0 8 -4 11 -10z
m-490 -16 c23 6 25 4 25 -28 0 -19 -4 -38 -10 -41 -10 -6 -13 5 -11 40 1 14
-1 16 -7 7 -6 -9 -14 -5 -33 15 -13 15 -16 21 -7 14 11 -8 28 -11 43 -7z m639
-101 c-17 -13 -36 -20 -46 -17 -10 3 -18 1 -18 -5 0 -17 -27 -13 -34 5 -15 40
4 69 71 110 l38 23 9 -46 c8 -44 7 -48 -20 -70z m-194 87 c0 -5 -4 -10 -10
-10 -5 0 -10 5 -10 10 0 6 5 10 10 10 6 0 10 -4 10 -10z m1420 1 c0 -5 -7 -11
-15 -15 -15 -5 -20 5 -8 17 9 10 23 9 23 -2z m-1894 -34 c8 3 14 1 14 -5 0
-18 -27 -21 -49 -6 -11 8 -21 20 -21 25 0 6 10 3 21 -5 12 -8 28 -12 35 -9z
m504 13 c0 -5 -5 -10 -11 -10 -5 0 -7 5 -4 10 3 6 8 10 11 10 2 0 4 -4 4 -10z
m25 0 c3 -5 1 -10 -4 -10 -6 0 -11 5 -11 10 0 6 2 10 4 10 3 0 8 -4 11 -10z
m1280 -20 c-11 -5 -29 -9 -40 -9 l-20 0 20 9 c11 5 29 9 40 9 l20 0 -20 -9z
m-170 -40 c-3 -5 -20 -19 -38 -30 l-32 -22 28 26 c15 14 27 35 27 48 1 21 2
21 11 5 5 -9 7 -21 4 -27z m881 5 c9 -8 11 -15 6 -15 -5 0 -15 7 -22 15 -7 8
-9 15 -6 15 4 0 14 -7 22 -15z m-2416 -10 c-7 -8 -17 -15 -22 -15 -6 0 -5 7 2
15 7 8 17 15 22 15 6 0 5 -7 -2 -15z m426 7 c6 -4 13 -15 17 -24 10 -28 -16
-21 -30 7 -11 25 -7 31 13 17z m656 -11 c-7 -4 -6 -27 4 -71 38 -171 46 -247
23 -223 -8 9 -59 249 -59 281 0 11 6 22 13 25 16 6 32 -4 19 -12z m45 3 c-3
-3 -12 -4 -19 -1 -8 3 -5 6 6 6 11 1 17 -2 13 -5z m1163 -20 c0 -8 -4 -14 -10
-14 -5 0 -10 9 -10 21 0 11 5 17 10 14 6 -3 10 -13 10 -21z m-1926 -5 c-11 -5
-13 -8 -5 -8 11 -1 9 -7 -7 -24 -12 -13 -22 -27 -22 -32 0 -5 7 0 15 11 13 18
14 16 12 -20 -2 -44 -23 -60 -30 -24 -3 18 -4 17 -5 -7 -1 -16 5 -41 13 -55 8
-14 14 -42 15 -62 0 -20 5 -40 10 -43 17 -11 1 -23 -23 -18 -43 11 -47 21 -47
124 0 128 24 184 74 171 19 -5 20 -6 0 -13z m-164 -45 c0 -27 -4 -43 -10 -39
-5 3 -10 24 -10 46 0 21 5 39 10 39 6 0 10 -21 10 -46z m51 25 c-17 -16 -22
-30 -19 -55 2 -21 0 -33 -6 -31 -12 4 -20 71 -12 93 3 8 18 14 33 14 l27 0
-23 -21z m903 12 c3 -5 -1 -15 -10 -22 -13 -10 -17 -10 -25 2 -5 8 -9 17 -9
22 0 10 38 9 44 -2z m-284 -35 c0 -13 9 -58 20 -101 26 -101 26 -135 1 -135
-20 0 -29 34 -47 178 -4 30 -10 49 -13 44 -3 -5 -15 -6 -26 -1 -15 5 -16 8 -4
8 9 1 24 10 34 21 21 23 35 18 35 -14z m103 27 c-7 -2 -13 -10 -13 -16 0 -12
-30 -47 -40 -47 -5 0 -10 16 -12 35 l-4 35 41 -1 c22 0 34 -3 28 -6z m680 -20
c-7 -2 -19 -2 -25 0 -7 3 -2 5 12 5 14 0 19 -2 13 -5z m-1273 -23 c0 -11 -4
-20 -9 -20 -5 0 -7 9 -4 20 3 11 7 20 9 20 2 0 4 -9 4 -20z m368 -1 c36 -12
36 -18 0 -96 -23 -50 -33 -59 -73 -67 -30 -7 -31 -6 -32 34 -1 29 2 40 13 40
7 0 14 -4 14 -10 0 -23 27 -7 47 29 23 39 23 40 3 46 -12 4 -26 0 -36 -9 -21
-21 -29 -20 -47 7 l-15 22 -20 -25 c-17 -20 -23 -23 -33 -12 -7 6 -26 12 -42
12 -26 0 -27 -1 -13 -16 9 -8 16 -18 16 -22 0 -4 7 -16 15 -26 12 -15 17 -17
29 -7 19 16 36 6 36 -20 0 -10 5 -19 10 -19 11 0 14 -33 4 -43 -3 -3 -16 -1
-28 5 -11 6 -28 14 -36 18 -8 4 -26 24 -38 46 -22 36 -23 30 -6 -27 6 -20 5
-20 -17 -7 -35 19 -38 27 -34 79 5 79 21 88 145 84 58 -2 120 -9 138 -16z
m776 -15 c21 -8 20 -33 -1 -56 -24 -27 -29 -22 -25 22 2 22 6 40 7 40 2 0 10
-3 19 -6z m-266 -118 c-4 -66 -24 -45 -33 34 l-7 65 21 -27 c17 -21 21 -38 19
-72z m-1028 -1 c0 -73 -1 -75 -20 -63 -15 10 -20 24 -20 55 0 24 5 43 10 43 6
0 10 9 10 20 0 11 5 20 10 20 6 0 10 -32 10 -75z m565 -3 c-9 -10 -23 38 -17
59 5 21 7 19 13 -16 4 -22 5 -42 4 -43z m378 61 c3 -5 8 -28 12 -54 6 -42 5
-46 -19 -57 -31 -14 -31 -13 -40 60 -4 32 -2 48 7 51 19 8 35 8 40 0z m-926
-45 c-3 -8 -6 -5 -6 6 -1 11 2 17 5 13 3 -3 4 -12 1 -19z m-339 -55 c-2 -9 -8
-18 -15 -20 -7 -3 -9 3 -6 16 6 25 26 28 21 4z m-43 -23 c-4 -12 -9 -19 -12
-17 -3 3 -2 15 2 27 4 12 9 19 12 17 3 -3 2 -15 -2 -27z m50 -20 c-3 -5 -13
-10 -21 -10 -8 0 -12 5 -9 10 3 6 13 10 21 10 8 0 12 -4 9 -10z m-51 -34 c-3
-9 -10 -13 -16 -10 -5 3 -4 12 3 20 15 18 22 13 13 -10z m101 4 c3 -5 1 -10
-4 -10 -6 0 -11 5 -11 10 0 6 2 10 4 10 3 0 8 -4 11 -10z m611 -15 c-5 -18 -2
-25 8 -25 18 0 29 27 13 34 -7 2 -2 5 11 5 17 1 22 -5 22 -24 0 -21 -5 -25
-31 -25 -16 0 -28 -4 -25 -9 3 -4 17 -6 31 -3 22 4 25 1 25 -26 0 -17 4 -33 9
-36 9 -6 -48 -115 -60 -116 -3 0 -10 15 -16 33 -6 17 -19 53 -29 78 l-18 47
27 32 c15 17 27 38 27 46 0 8 3 14 6 14 3 0 3 -11 0 -25z m-623 -8 c4 3 7 -2
7 -12 0 -23 -48 -75 -69 -75 -8 0 -23 -8 -33 -17 -19 -17 -19 -16 -13 12 15
70 27 87 52 80 22 -5 24 -3 17 17 -6 22 -6 22 13 5 11 -9 23 -14 26 -10z
m1472 -17 c-3 -5 -11 -10 -16 -10 -6 0 -7 5 -4 10 3 6 11 10 16 10 6 0 7 -4 4
-10z m-1095 -26 c-7 -18 -7 -31 0 -39 7 -9 7 -15 1 -19 -5 -4 -12 -2 -16 4 -8
13 5 80 16 80 5 0 4 -12 -1 -26z m30 -10 c0 -8 -5 -12 -10 -9 -6 4 -8 11 -5
16 9 14 15 11 15 -7z m1077 -11 c-11 -13 -13 -23 -6 -36 8 -13 6 -17 -8 -17
-10 0 -34 -9 -53 -20 l-35 -21 28 25 c15 14 27 28 27 31 0 10 53 65 58 60 3
-3 -2 -13 -11 -22z m-452 7 c3 -5 1 -10 -4 -10 -6 0 -11 5 -11 10 0 6 2 10 4
10 3 0 8 -4 11 -10z m94 3 c-1 -9 -151 -85 -156 -79 -4 4 137 85 150 86 4 0 7
-3 6 -7z m292 -40 c-8 -15 -10 -15 -11 -2 0 17 10 32 18 25 2 -3 -1 -13 -7
-23z m-993 -82 c32 -40 74 -112 70 -116 -2 -2 -28 30 -58 70 l-55 73 -6 -51
c-12 -96 -22 -311 -20 -405 3 -111 -6 -195 -21 -186 -8 5 -9 107 -6 319 5 310
5 312 -15 307 -14 -3 -18 -1 -13 6 4 7 14 12 22 12 8 0 14 4 14 8 0 5 14 7 30
4 20 -3 40 -17 58 -41z m557 7 c33 -143 43 -236 29 -272 -3 -9 -16 -17 -28
-17 -16 -1 -17 -2 -3 -6 23 -6 22 -10 -18 -114 -19 -50 -35 -104 -35 -120 0
-16 -4 -29 -10 -29 -5 0 -10 11 -10 25 0 14 -6 25 -12 25 -8 1 -5 7 6 15 19
14 18 15 -3 66 -27 67 -27 95 5 136 22 30 24 35 11 53 -13 18 -16 19 -27 5
-22 -26 -30 -16 -15 19 8 18 24 69 35 112 22 80 43 124 60 124 5 0 12 -10 15
-22z m909 -4 c3 -8 2 -12 -4 -9 -6 3 -10 10 -10 16 0 14 7 11 14 -7z m45 -116
c13 -57 14 -88 2 -88 -6 0 -12 21 -16 48 -3 26 -8 60 -11 77 -7 45 12 17 25
-37z m-1068 -55 c-8 -15 -10 -15 -11 -2 0 17 10 32 18 25 2 -3 -1 -13 -7 -23z
m189 -87 c0 -26 -6 -18 -14 19 -5 22 -4 26 4 15 5 -8 10 -24 10 -34z m-197
-53 c-3 -18 -9 -33 -14 -33 -13 0 -11 44 3 58 15 15 17 13 11 -25z m197 -66
c0 -45 2 -49 13 -32 19 25 26 9 34 -70 6 -64 5 -67 -24 -98 -17 -18 -38 -46
-47 -64 -20 -41 -41 -55 -31 -22 16 56 28 76 56 93 17 10 28 20 25 23 -12 12
-79 -52 -95 -90 l-18 -41 -11 46 c-7 26 -11 66 -11 90 1 40 2 41 9 13 7 -24 8
-19 7 27 0 48 5 65 39 121 21 36 42 63 46 60 5 -2 8 -27 8 -56z m-500 -81 c30
-31 51 -56 47 -56 -10 0 -160 139 -171 159 -14 23 61 -39 124 -103z m1395
-143 c-3 -13 -10 -21 -15 -18 -6 3 -6 15 0 31 6 14 11 44 12 67 2 41 2 41 5
-7 3 -27 2 -60 -2 -73z m-730 67 c21 -22 37 -40 34 -40 -3 0 -23 18 -44 40
-21 22 -37 40 -34 40 3 0 23 -18 44 -40z m-820 -138 c-3 -3 -11 0 -18 7 -9 10
-8 11 6 5 10 -3 15 -9 12 -12z m868 -59 c-7 -2 -19 -2 -25 0 -7 3 -2 5 12 5
14 0 19 -2 13 -5z m-78 -10 c-42 -5 -85 -23 -85 -36 0 -9 49 -6 110 9 18 4 21
3 10 -4 -8 -5 -39 -15 -68 -23 -35 -9 -49 -16 -42 -23 20 -20 11 -56 -16 -66
-34 -13 -34 -14 -23 22 5 18 9 47 9 65 0 40 36 63 95 61 32 -1 34 -2 10 -5z
m-730 -32 l60 -7 -42 -8 c-49 -9 -67 -25 -21 -18 21 3 29 1 24 -7 -4 -6 -20
-11 -37 -11 -16 0 -29 -5 -29 -12 0 -22 -37 26 -44 56 -6 25 -5 28 11 21 10
-4 45 -10 78 -14z m70 -21 c-3 -5 -12 -10 -18 -10 -7 0 -6 4 3 10 19 12 23 12
15 0z m-70 -226 c5 -24 4 -26 -4 -8 -16 35 -33 40 -25 7 4 -15 11 -32 15 -38
12 -13 11 -87 -2 -105 -8 -11 -9 1 -5 45 3 33 2 49 -2 35 -7 -22 -9 -23 -15
-7 -4 10 -7 39 -7 63 0 25 -6 55 -14 67 -8 12 -18 47 -21 77 l-6 55 40 -81
c22 -45 43 -94 46 -110z m116 159 c13 -15 12 -15 -8 -4 -24 12 -29 21 -14 21
5 0 15 -7 22 -17z m1429 -73 c0 -11 7 -36 14 -55 8 -19 11 -35 7 -35 -9 0 -27
39 -37 83 -4 17 -2 27 5 27 6 0 11 -9 11 -20z m-3135 -20 c3 -5 1 -10 -4 -10
-6 0 -11 5 -11 10 0 6 2 10 4 10 3 0 8 -4 11 -10z m1545 -168 c0 -42 -17 -12
-24 43 l-6 50 15 -34 c8 -18 15 -45 15 -59z m858 21 c10 -56 -1 -70 -28 -38
-7 8 -10 15 -7 15 3 0 2 14 -3 30 -7 24 -6 30 7 30 10 0 13 6 8 18 -4 11 -3
14 4 7 5 -5 14 -34 19 -62z m152 -2 c-12 -17 -26 -31 -31 -31 -5 0 3 16 18 35
33 41 44 38 13 -4z m-2350 9 c0 -5 13 -7 31 -3 l31 6 -6 -138 c-6 -132 -11
-154 -38 -155 -5 0 -8 13 -8 28 0 19 -5 29 -15 29 -11 0 -15 -12 -15 -43 0
-46 -13 -63 -34 -45 -10 8 -18 6 -32 -10 -19 -22 -19 -22 6 -14 20 6 17 1 -15
-24 -72 -56 -115 -84 -121 -79 -12 13 -16 151 -5 209 13 67 17 133 10 159 -3
12 13 16 95 18 l99 4 -5 -59 c-3 -32 -2 -69 2 -83 6 -20 8 -15 9 25 1 28 6 70
11 95 7 35 6 47 -6 56 -16 13 -19 34 -4 34 6 0 10 -4 10 -10z m-243 -6 c-3 -3
-12 -4 -19 -1 -8 3 -5 6 6 6 11 1 17 -2 13 -5z m206 -14 c6 -23 -8 -26 -29 -6
-19 19 -18 26 5 26 10 0 21 -9 24 -20z m2093 4 c18 -14 18 -14 -6 -3 -31 14
-36 19 -24 19 6 0 19 -7 30 -16z m-536 -8 c0 -7 -67 -44 -91 -50 -13 -4 1 7
31 23 60 33 60 33 60 27z m633 -53 c-15 -5 -73 24 -73 37 0 6 19 1 43 -11 23
-12 37 -24 30 -26z m-773 -158 c6 -71 14 -152 17 -179 4 -35 0 -57 -13 -82
-20 -36 -34 -44 -34 -19 0 9 7 18 15 21 12 5 13 24 9 107 -3 55 -7 104 -10
109 -3 4 -7 34 -10 65 -3 32 -8 65 -11 73 -3 8 -7 28 -8 44 -3 27 -2 28 15 10
14 -15 21 -49 30 -149z m95 125 c-10 -11 -23 -20 -28 -20 -6 0 -2 9 8 20 10
11 23 20 28 20 6 0 2 -9 -8 -20z m625 10 c0 -5 -4 -10 -9 -10 -6 0 -13 5 -16
10 -3 6 1 10 9 10 9 0 16 -4 16 -10z m274 -29 c3 -4 -6 -19 -19 -31 -20 -19
-25 -20 -25 -8 0 39 29 64 44 39z m-181 -79 c37 -17 67 -36 67 -41 0 -6 -2
-11 -4 -11 -14 0 -181 100 -184 110 -3 8 7 5 24 -7 16 -11 59 -34 97 -51z
m-603 24 c0 -7 -123 -46 -128 -41 -5 5 8 11 70 30 47 15 58 17 58 11z m823
-107 c-26 -13 -47 -32 -55 -50 -15 -33 -29 -39 -21 -9 8 29 70 80 96 80 17 -1
12 -6 -20 -21z m776 -41 c-27 -68 -30 -73 -40 -57 -6 9 -9 1 -9 -23 0 -21 -4
-38 -10 -38 -5 0 -10 12 -10 28 0 15 -3 45 -5 67 -5 36 -4 37 6 17 16 -29 29
-24 54 21 29 54 38 45 14 -15z m-1704 -3 c-16 -13 -32 -22 -35 -19 -7 7 39 44
54 44 6 -1 -2 -12 -19 -25z m750 -35 c8 -13 4 -13 -39 5 -20 9 -34 20 -31 25
7 11 59 -12 70 -30z m183 -126 c-15 -15 -31 -23 -38 -19 -8 5 -2 13 17 25 41
27 51 24 21 -6z m-173 -8 c19 -8 35 -20 35 -25 0 -17 -47 -13 -65 5 -8 9 -22
13 -30 10 -8 -3 -15 -1 -15 3 0 9 16 19 33 20 4 1 23 -6 42 -13z m-768 -27
c-14 -8 -22 -8 -30 0 -8 8 -3 11 19 11 25 -1 27 -2 11 -11z m733 -39 c0 -19
-18 -19 -23 -1 -3 14 -1 18 9 14 8 -3 14 -9 14 -13z m-816 -5 c3 -8 3 -21 0
-29 -3 -8 0 -17 6 -21 8 -5 0 -14 -19 -26 -41 -25 -53 -24 -22 1 18 16 22 27
19 55 -4 36 5 47 16 20z m180 -24 c-11 -11 -106 -31 -137 -30 -12 0 11 9 52
20 41 10 77 21 79 24 3 3 8 3 11 0 2 -3 0 -9 -5 -14z m741 -14 c28 -21 11 -38
-26 -25 -25 9 -38 7 -66 -6 -49 -23 -53 -13 -6 18 43 28 71 32 98 13z m-2500
-27 c3 -6 -1 -13 -10 -16 -19 -8 -30 0 -20 15 8 14 22 14 30 1z m140 0 c21 -5
6 -8 -50 -8 -56 0 -71 3 -50 8 17 4 39 8 50 8 11 0 34 -4 50 -8z m-27 -37
c-21 -2 -57 -2 -80 0 -24 2 -7 4 37 4 44 0 63 -2 43 -4z m2382 -2 c0 -5 -7
-12 -15 -15 -19 -7 -59 -90 -77 -161 -8 -27 -19 -51 -26 -53 -10 -2 -10 3 -3
16 6 10 8 28 4 40 -6 24 49 150 75 170 18 14 42 16 42 3z m965 -41 c21 -22 36
-40 32 -40 -10 0 -77 61 -77 71 0 14 3 12 45 -31z m-1920 20 c-3 -5 -11 -10
-16 -10 -6 0 -7 5 -4 10 3 6 11 10 16 10 6 0 7 -4 4 -10z m-975 -20 c0 -5 -4
-10 -10 -10 -5 0 -10 5 -10 10 0 6 5 10 10 10 6 0 10 -4 10 -10z m-351 -32
c12 -33 2 -37 -21 -9 -16 21 -21 22 -29 10 -5 -7 -9 -9 -9 -3 0 31 47 33 59 2z
m71 4 c26 -2 31 0 20 8 -13 8 -13 10 1 10 16 0 32 -33 21 -44 -3 -3 -26 -6
-51 -6 -33 0 -42 3 -31 10 13 8 8 14 -11 12 -3 -1 -6 6 -6 13 0 9 5 11 11 7 6
-5 27 -9 46 -10z m220 8 c0 -5 -2 -10 -4 -10 -3 0 -8 5 -11 10 -3 6 -1 10 4
10 6 0 11 -4 11 -10z m1990 5 c0 -2 -9 -9 -20 -15 -12 -6 -20 -7 -20 -1 0 5 8
12 18 14 9 3 18 5 20 6 1 0 2 -1 2 -4z m-2062 -23 c12 10 14 10 8 1 -9 -16 15
-18 30 -3 7 7 11 6 11 -5 0 -12 -9 -15 -35 -13 -20 2 -37 9 -38 16 -1 7 0 8 3
2 3 -7 10 -7 21 2z m92 -12 c0 -5 -8 -10 -17 -10 -15 0 -16 2 -3 10 19 12 20
12 20 0z m1959 -24 c-2 -2 -14 -7 -26 -10 -18 -6 -22 -4 -17 8 6 17 37 26 43
13 1 -4 1 -10 0 -11z m-1089 -15 c24 -8 24 -8 -15 -25 -43 -18 -76 -18 -83 2
-7 23 50 37 98 23z m-494 -8 c46 -7 47 -8 19 -14 -16 -4 -69 -7 -116 -8 -48 0
-101 -4 -120 -8 -28 -5 -30 -7 -14 -14 13 -5 -1 -8 -40 -8 -42 -1 -56 2 -45 9
10 6 11 10 3 10 -7 0 -13 9 -13 20 0 19 7 20 139 20 76 0 160 -3 187 -7z
m1567 -19 c11 -11 -3 -24 -18 -18 -8 4 -12 10 -9 15 6 11 18 12 27 3z m1105
-75 c-4 -22 -6 -21 -21 13 -22 49 -21 57 4 32 13 -14 19 -30 17 -45z m-2222
22 c14 -11 21 -21 17 -24 -4 -2 -53 -5 -108 -7 -55 -1 -116 -3 -135 -4 -19 -1
-51 2 -70 5 -19 4 25 7 100 8 74 2 129 5 123 8 -7 2 -13 14 -13 25 0 18 4 20
31 14 17 -3 42 -15 55 -25z m1127 15 c-39 -22 -73 -54 -73 -70 0 -9 16 -20 43
-27 l42 -12 -30 -13 c-48 -19 -109 -29 -101 -15 4 6 11 9 16 6 5 -3 11 -1 15
5 3 5 1 10 -4 10 -20 0 -11 38 15 69 14 17 23 31 19 31 -4 0 -2 6 4 13 6 8 25
14 42 14 27 0 29 -2 12 -11z m926 -22 c2 -2 -2 -10 -9 -19 -11 -13 -8 -15 18
-15 16 0 35 -7 42 -15 11 -13 -10 -15 -176 -13 -104 1 -169 3 -144 4 86 6 210
26 216 35 3 5 14 9 25 9 11 0 17 5 14 10 -3 6 -14 10 -24 10 -10 0 -24 7 -31
15 -11 13 -7 13 26 -1 22 -9 41 -18 43 -20z m-206 19 c-7 -2 -19 -2 -25 0 -7
3 -2 5 12 5 14 0 19 -2 13 -5z m-639 -22 c12 -19 -70 -59 -127 -61 -14 0 21
43 45 57 27 14 74 17 82 4z m-617 -48 c-20 -2 -35 -8 -32 -14 7 -11 -145 -13
-172 -1 -17 7 104 18 202 18 l40 1 -38 -4z m513 -72 c0 -5 -7 -11 -15 -15 -8
-3 -15 -12 -15 -21 0 -18 -8 -18 -40 0 l-25 13 25 10 c14 5 32 12 40 15 23 8
30 8 30 -2z"/>
<path d="M2580 4212 c0 -5 21 -9 48 -9 33 -1 41 2 27 7 -27 11 -75 12 -75 2z"/>
<path d="M2580 4174 l-25 -15 34 5 c18 3 38 6 43 6 5 0 6 5 3 10 -9 14 -26 12
-55 -6z"/>
<path d="M2338 3863 c7 -3 16 -2 19 1 4 3 -2 6 -13 5 -11 0 -14 -3 -6 -6z"/>
<path d="M2582 3510 c0 -14 2 -19 5 -12 2 6 2 18 0 25 -3 6 -5 1 -5 -13z"/>
<path d="M2409 3065 c-4 -5 -4 -28 0 -49 6 -37 7 -38 21 -21 8 11 10 16 3 12
-8 -5 -13 4 -15 30 -2 21 -6 34 -9 28z"/>
<path d="M3036 2803 c10 -40 14 -41 14 -5 0 18 -5 32 -10 32 -6 0 -8 -11 -4
-27z"/>
<path d="M2753 2035 c-3 -9 -3 -18 -1 -21 3 -3 8 4 11 16 6 23 -1 27 -10 5z"/>
<path d="M762 1273 c-25 -35 -27 -90 -4 -85 7 1 17 -10 24 -25 l11 -28 13 40
c7 22 13 50 13 62 1 26 -18 42 -20 16 -1 -10 -4 -2 -8 17 l-6 35 -23 -32z"/>
<path d="M2474 4775 c-25 -53 -53 -181 -53 -235 0 -21 2 -18 13 12 20 57 43
87 79 102 23 10 27 15 13 15 -29 1 -7 19 29 24 23 3 20 4 -14 6 l-44 1 5 65
c3 36 4 65 1 65 -2 0 -16 -25 -29 -55z"/>
<path d="M1020 4723 c0 -11 -3 -22 -6 -26 -3 -3 -7 -32 -8 -64 -3 -62 -24
-273 -32 -311 -4 -19 -8 -21 -19 -12 -11 9 -12 7 -8 -8 2 -10 -5 -38 -18 -61
-16 -32 -19 -45 -10 -54 15 -15 14 -122 -1 -150 -7 -12 -13 -27 -14 -33 -1 -6
-10 -24 -19 -38 -14 -20 -20 -24 -26 -14 -6 9 -9 8 -10 -7 -2 -26 -2 -26 6
-50 5 -13 4 -16 -2 -8 -17 23 -52 -14 -69 -72 -8 -30 -19 -55 -24 -55 -11 0
-21 43 -11 50 5 3 6 23 2 45 l-8 40 -6 -45 c-15 -97 -15 -125 2 -138 9 -8 11
-11 4 -8 -7 4 -12 -12 -15 -49 -4 -67 9 -74 15 -7 4 44 4 43 3 -8 -1 -44 -5
-55 -18 -58 -11 -2 -18 3 -18 12 0 9 -4 16 -10 16 -5 0 -10 -7 -10 -15 0 -9
-9 -15 -25 -15 -14 0 -25 -5 -25 -11 0 -5 4 -8 9 -5 5 4 20 2 33 -3 23 -10 23
-10 -4 -10 l-28 -1 0 -149 c0 -89 -4 -152 -10 -156 -16 -10 -12 -65 5 -65 11
0 15 -12 15 -52 0 -63 17 -54 22 12 2 25 4 -83 6 -240 2 -287 -2 -374 -20
-368 -6 2 -9 78 -8 191 0 123 -3 187 -10 187 -6 0 -10 -65 -10 -190 0 -162 -2
-190 -15 -190 -8 0 -15 -4 -15 -10 0 -5 16 -10 35 -10 19 0 35 -4 35 -10 0
-11 -69 -10 -76 2 -3 4 -13 8 -22 8 -10 0 -13 -3 -7 -8 6 -4 10 -25 10 -47 -1
-22 1 -44 4 -50 11 -21 9 -35 -6 -33 -8 2 -25 -9 -36 -25 -17 -22 -18 -30 -8
-40 6 -6 17 -12 24 -12 6 0 17 -25 23 -55 l11 -55 4 60 4 60 40 3 c21 2 54 1
72 -3 l33 -6 0 -132 c0 -73 3 -183 7 -245 5 -95 8 -111 20 -100 10 11 13 63
13 236 1 182 3 222 15 222 15 0 29 -95 24 -171 -5 -94 1 -171 14 -166 13 4 13
8 17 232 2 77 5 124 8 105 4 -30 5 -32 13 -15 6 12 7 -79 4 -234 -3 -183 -2
-252 6 -244 7 7 13 95 16 237 4 124 10 223 14 220 5 -3 9 -40 10 -82 0 -81 10
-125 23 -104 4 7 15 12 25 12 15 0 19 -11 23 -58 3 -31 5 -91 4 -132 -1 -63 2
-77 18 -89 17 -13 18 -24 14 -105 -5 -89 -3 -116 10 -116 4 0 7 120 8 268 1
391 4 471 19 466 13 -5 25 -148 25 -293 0 -105 11 -214 21 -204 5 5 10 120 11
256 2 156 7 247 13 247 6 0 10 -34 10 -80 1 -82 9 -108 26 -77 6 9 14 15 18
13 5 -3 6 6 3 21 -3 18 -1 24 7 19 7 -5 11 4 11 28 0 20 -4 36 -10 36 -5 0
-10 12 -10 28 0 21 -2 24 -10 12 -8 -13 -10 -12 -11 5 -1 11 -1 33 0 49 2 25
0 28 -18 23 -16 -4 -21 0 -21 13 0 11 -5 22 -10 25 -12 7 -4 25 11 25 5 0 9
-9 9 -19 0 -11 5 -23 10 -26 18 -11 38 14 32 40 -2 15 0 25 7 25 6 0 11 -5 11
-10 0 -6 6 -5 14 2 12 11 11 14 -3 23 -15 8 -17 25 -16 102 0 50 -2 90 -6 87
-4 -2 -10 8 -12 23 -4 28 -11 -102 -7 -144 1 -13 -3 -23 -9 -23 -7 0 -9 28 -6
80 3 66 2 80 -10 80 -13 0 -15 35 -14 238 1 130 5 221 8 202 7 -33 7 -32 15
25 l8 60 29 -33 c24 -27 29 -41 29 -85 0 -37 3 -48 10 -37 7 11 10 -1 10 -40
0 -67 19 -50 21 20 l2 45 7 -45 c7 -42 7 -41 8 24 l2 68 25 -16 c24 -16 45
-14 45 4 0 4 -10 10 -22 14 -13 3 -36 17 -53 31 l-30 25 30 -2 c17 -2 29 2 28
7 -8 50 -11 246 -4 230 6 -11 10 -14 10 -6 1 10 4 11 15 2 18 -15 34 5 17 22
-6 6 -11 27 -12 47 0 31 -1 32 -9 13 -16 -39 -26 -25 -28 39 -2 34 -5 64 -7
66 -2 3 -1 12 4 21 5 9 5 25 0 36 -6 16 -8 13 -8 -15 -2 -50 -21 -18 -21 35 0
61 -4 84 -11 79 -15 -9 -40 9 -36 27 3 10 -1 20 -9 23 -8 3 -14 14 -14 24 0
10 -3 21 -6 25 -10 10 -34 -4 -34 -20 0 -8 5 -11 10 -8 6 4 10 -8 10 -29 0
-26 -4 -36 -16 -36 -9 0 -18 9 -21 20 -3 11 -9 20 -13 20 -4 0 -11 16 -14 35
-4 19 -11 35 -16 35 -6 0 -10 9 -10 20 0 25 45 28 78 4 22 -15 22 -14 22 25 0
29 -4 41 -15 42 -24 2 -29 4 -52 19 -21 13 -23 23 -23 98 0 61 3 81 12 76 8
-5 9 -2 4 12 -5 10 -11 38 -13 62 -4 32 -9 42 -20 38 -8 -3 -12 -2 -9 2 3 5
-1 20 -9 35 -13 25 -19 89 -30 326 -2 51 -7 96 -10 99 -3 3 -5 -4 -5 -15z m20
-508 c0 -8 -7 -15 -15 -15 -9 0 -12 6 -9 15 4 8 10 15 15 15 5 0 9 -7 9 -15z
m-20 -63 c0 -15 -2 -15 -10 -2 -13 20 -13 33 0 25 6 -3 10 -14 10 -23z m-48
-82 c3 -16 1 -30 -4 -30 -4 0 -8 14 -8 30 0 17 2 30 4 30 2 0 6 -13 8 -30z
m61 -57 c-13 -2 -33 -2 -45 0 -13 2 -3 4 22 4 25 0 35 -2 23 -4z m57 -64 c0
-5 -29 -8 -65 -7 -80 3 -85 16 -7 20 62 3 72 2 72 -13z m-140 1 c0 -5 -6 -10
-14 -10 -8 0 -18 5 -21 10 -3 6 3 10 14 10 12 0 21 -4 21 -10z m-42 -42 c9 -9
12 -9 12 0 0 9 20 12 73 10 39 -2 70 -6 67 -10 -3 -4 4 -13 14 -21 10 -8 16
-19 12 -25 -3 -6 -2 -13 4 -17 21 -13 9 -21 -25 -17 -22 3 -35 10 -35 19 0 10
7 13 23 9 12 -3 16 -3 10 0 -7 3 -13 12 -13 20 0 18 -9 18 -32 -3 -17 -15 -18
-15 -18 8 0 18 -5 25 -20 25 -11 0 -20 -4 -20 -9 0 -5 -7 -7 -15 -3 -8 3 -15
1 -15 -5 0 -6 -6 -6 -19 0 -10 6 -21 7 -25 4 -3 -3 -6 1 -6 10 0 20 11 22 28
5z m212 -108 c12 -8 10 -9 -7 -7 -12 2 -26 6 -29 10 -11 11 19 8 36 -3z m110
-60 c0 -6 -9 -10 -20 -10 -13 0 -20 7 -20 20 0 18 3 19 20 10 11 -6 20 -15 20
-20z m-60 12 c0 -5 -13 -7 -30 -4 -16 2 -30 6 -30 8 0 2 14 4 30 4 17 0 30 -4
30 -8z m-74 -12 c13 0 24 -5 24 -11 0 -6 -7 -9 -15 -5 -8 3 -14 2 -14 -2 3
-20 -2 -33 -11 -27 -5 3 -11 0 -11 -7 -1 -7 -5 1 -9 17 -8 30 -8 29 -9 -8 -1
-48 -25 -46 -29 3 -4 34 12 54 36 45 8 -3 25 -5 38 -5z m-258 -77 c-2 -70 -2
-72 -5 -20 -2 31 -8 57 -13 57 -5 0 -10 -26 -12 -57 -3 -57 -3 -56 -8 20 -5
75 -4 77 18 77 21 0 22 -3 20 -77z m136 61 c3 -8 10 -12 16 -9 6 4 10 -14 9
-47 0 -42 -2 -48 -9 -30 -11 26 -30 29 -31 5 0 -14 -3 -12 -10 5 -5 13 -13 21
-17 18 -5 -3 -9 0 -9 7 0 7 -3 25 -7 40 -6 25 -4 27 23 27 17 0 31 -6 35 -16z
m-99 -23 c3 -5 1 -12 -5 -16 -5 -3 -10 1 -10 9 0 18 6 21 15 7z m265 -5 c0
-25 -12 -46 -26 -46 -8 0 -14 -11 -14 -27 0 -14 -3 -24 -6 -20 -3 3 -3 29 1
56 6 41 11 51 26 51 10 0 19 -6 19 -14z m101 -21 c25 -30 49 -93 49 -126 0
-29 0 -29 -25 -13 -33 22 -32 9 3 -22 17 -16 20 -22 7 -15 -38 20 -61 46 -71
81 -6 19 -16 34 -22 33 -16 -4 -16 59 0 75 16 16 40 11 59 -13z m-374 -37 c-3
-7 -5 -2 -5 12 0 14 2 19 5 13 2 -7 2 -19 0 -25z m263 -18 c0 -11 -4 -20 -9
-20 -5 0 -7 9 -4 20 3 11 7 20 9 20 2 0 4 -9 4 -20z m-90 -19 c0 -5 -9 -7 -20
-4 -11 3 -20 7 -20 9 0 2 9 4 20 4 11 0 20 -4 20 -9z m-339 -73 c-1 -5 -1 -73
-1 -153 0 -122 -2 -145 -15 -145 -13 0 -15 24 -15 156 0 135 2 155 16 152 8
-2 15 -6 15 -10z m506 0 c11 -17 14 -58 18 -206 l4 -124 -24 16 c-13 9 -33 16
-45 16 -11 0 -20 5 -20 11 0 6 7 8 17 5 17 -7 33 9 33 34 -1 12 -3 11 -11 -2
-5 -10 -16 -18 -24 -18 -12 0 -14 21 -9 128 7 149 7 152 33 152 11 0 23 -6 28
-12z m-458 -145 c-1 -108 -4 -137 -10 -108 -7 36 -1 255 7 255 2 0 3 -66 3
-147z m70 -8 c1 -95 -2 -145 -9 -145 -6 0 -10 53 -10 151 0 87 4 148 9 145 5
-3 10 -71 10 -151z m101 -2 c0 -109 -3 -144 -11 -136 -8 8 -9 51 -4 147 4 75
9 136 11 136 2 0 4 -66 4 -147z m60 70 c0 -43 3 -108 7 -145 5 -58 4 -68 -10
-68 -13 0 -16 20 -16 145 0 88 3 145 9 145 6 0 10 -34 10 -77z m-110 -73 c0
-87 -4 -140 -10 -140 -6 0 -10 53 -10 140 0 87 4 140 10 140 6 0 10 -53 10
-140z m200 5 c0 -83 -4 -135 -10 -135 -6 0 -10 26 -10 58 0 68 11 212 16 212
2 0 4 -61 4 -135z m40 0 c0 -70 -4 -115 -10 -115 -6 0 -10 43 -10 108 0 95 4
122 17 122 2 0 3 -52 3 -115z m150 -35 c0 -11 -4 -20 -10 -20 -5 0 -10 9 -10
20 0 11 5 20 10 20 6 0 10 -9 10 -20z m1 -85 c5 4 8 -9 8 -27 -1 -24 -3 -27
-6 -10 -2 12 -9 20 -14 17 -5 -4 -8 6 -8 22 1 17 3 21 6 10 2 -9 9 -15 14 -12z
m-151 -15 c0 -5 -4 -10 -10 -10 -5 0 -10 5 -10 10 0 6 5 10 10 10 6 0 10 -4
10 -10z m187 -32 c-3 -7 -5 -2 -5 12 0 14 2 19 5 13 2 -7 2 -19 0 -25z m-637
2 c0 -5 -4 -10 -10 -10 -5 0 -10 5 -10 10 0 6 5 10 10 10 6 0 10 -4 10 -10z
m37 4 c-3 -3 -12 -4 -19 -1 -8 3 -5 6 6 6 11 1 17 -2 13 -5z m53 2 c0 -11 -19
-15 -25 -6 -3 5 1 10 9 10 9 0 16 -2 16 -4z m179 -316 c1 -224 -7 -370 -20
-370 -11 0 -12 664 -1 674 13 13 20 -92 21 -304z m60 -92 c1 -254 -4 -310 -24
-278 -9 15 -7 606 2 650 7 32 8 30 14 -30 4 -36 7 -190 8 -342z m41 356 c0
-27 -4 -43 -10 -39 -17 11 -11 85 7 85 2 0 3 -21 3 -46z m40 -46 c0 -45 -3
-78 -7 -74 -9 9 -10 156 0 156 4 0 7 -37 7 -82z m-251 -151 c-1 -117 -5 -264
-9 -327 -5 -84 -7 -26 -8 218 -1 220 1 331 8 327 6 -4 10 -86 9 -218z m18 161
c-2 -13 -4 -3 -4 22 0 25 2 35 4 23 2 -13 2 -33 0 -45z m-87 -8 c0 -27 -4 -50
-10 -50 -5 0 -10 23 -10 50 0 28 5 50 10 50 6 0 10 -22 10 -50z m357 -57 c-2
-16 -4 -5 -4 22 0 28 2 40 4 28 2 -13 2 -35 0 -50z m-242 -470 c-4 -35 -10
-63 -15 -63 -23 0 -17 535 6 572 11 16 18 -420 9 -509z m162 465 c-2 -13 -4
-5 -4 17 -1 22 1 32 4 23 2 -10 2 -28 0 -40z m-279 -244 c3 -236 -1 -291 -19
-263 -16 25 -6 499 10 499 4 0 8 -106 9 -236z m282 105 c-6 -27 -8 -19 -8 41
0 65 1 70 8 34 5 -22 5 -56 0 -75z m40 90 c0 -5 -4 -9 -10 -9 -5 0 -10 7 -10
16 0 8 5 12 10 9 6 -3 10 -10 10 -16z m46 -44 c1 -14 -2 -25 -7 -25 -5 0 -9
14 -9 32 0 36 12 31 16 -7z m-46 -12 c0 -20 -3 -24 -11 -16 -7 7 -9 19 -6 27
10 24 17 19 17 -11z m49 -55 c-1 -18 -5 -46 -9 -63 -6 -23 -8 -16 -8 33 1 34
5 62 9 62 5 0 8 -15 8 -32z m-55 -60 c-8 -28 -12 -33 -20 -25 -9 8 6 47 17 47
6 0 7 -10 3 -22z m-37 -40 c-3 -7 -5 -2 -5 12 0 14 2 19 5 13 2 -7 2 -19 0
-25z m84 -39 c-9 -23 -10 -22 -10 11 -1 23 2 31 9 24 7 -7 7 -19 1 -35z m-81
-49 c0 -16 -4 -30 -10 -30 -5 0 -10 14 -10 30 0 17 5 30 10 30 6 0 10 -13 10
-30z m0 -65 c0 -8 -4 -15 -10 -15 -5 0 -10 7 -10 15 0 8 5 15 10 15 6 0 10 -7
10 -15z m90 -59 c0 -30 -4 -58 -10 -61 -6 -4 -10 17 -10 54 0 34 4 61 10 61 6
0 10 -24 10 -54z m-83 -16 c1 -33 -2 -40 -19 -40 -12 0 -17 4 -12 12 5 7 7 25
6 40 -2 18 3 28 11 28 8 0 13 -14 14 -40z m-2 -60 c3 -5 -1 -10 -9 -10 -9 0
-16 5 -16 10 0 6 4 10 9 10 6 0 13 -4 16 -10z m-232 -7 c-7 -2 -21 -2 -30 0
-10 3 -4 5 12 5 17 0 24 -2 18 -5z m50 0 c-7 -2 -19 -2 -25 0 -7 3 -2 5 12 5
14 0 19 -2 13 -5z m67 -3 c0 -5 -5 -10 -11 -10 -5 0 -7 5 -4 10 3 6 8 10 11
10 2 0 4 -4 4 -10z m50 0 c0 -5 -4 -10 -10 -10 -5 0 -10 5 -10 10 0 6 5 10 10
10 6 0 10 -4 10 -10z m-90 -61 c0 -29 -19 -71 -30 -64 -5 3 -10 19 -10 36 0
16 -4 29 -10 29 -5 0 -10 -11 -10 -25 0 -37 -25 -31 -37 9 l-11 34 54 0 c45
-1 54 -4 54 -19z m46 -9 c-5 -44 -13 -46 -14 -5 -1 19 3 35 8 35 5 0 8 -14 6
-30z m99 20 c-3 -5 -11 -10 -16 -10 -6 0 -7 5 -4 10 3 6 11 10 16 10 6 0 7 -4
4 -10z m63 -27 c-4 -35 -28 -61 -28 -29 0 9 5 16 12 16 9 0 9 3 0 12 -17 17
-15 38 4 38 12 0 15 -9 12 -37z m-439 -33 c-1 -33 -6 -57 -10 -54 -5 3 -9 11
-9 18 0 7 -7 27 -16 44 -17 36 -12 52 17 52 17 0 19 -7 18 -60z m321 -87 c0
-5 -13 -8 -30 -8 -16 0 -30 3 -30 8 0 4 14 7 30 7 17 0 30 -3 30 -7z m29 -88
c-2 -46 -5 -82 -7 -80 -3 2 -13 0 -23 -6 -15 -7 -19 -6 -19 6 0 8 4 15 10 15
5 0 7 7 4 15 -5 11 -2 13 10 9 14 -5 16 3 16 60 0 36 3 66 6 66 3 0 4 -38 3
-85z"/>
<path d="M1190 3236 c0 -2 7 -7 16 -10 8 -3 12 -2 9 4 -6 10 -25 14 -25 6z"/>
<path d="M3293 4555 c0 -8 6 -15 13 -15 20 0 26 17 8 24 -21 8 -21 8 -21 -9z"/>
<path d="M2060 4535 c0 -5 56 -35 65 -35 3 0 4 4 1 9 -6 10 -66 33 -66 26z"/>
<path d="M2412 4480 c0 -19 2 -27 5 -17 2 9 2 25 0 35 -3 9 -5 1 -5 -18z"/>
<path d="M1100 4410 c19 -13 30 -13 30 0 0 6 -10 10 -22 10 -19 0 -20 -2 -8
-10z"/>
<path d="M3620 4210 c-9 -6 -10 -10 -3 -10 6 0 15 5 18 10 8 12 4 12 -15 0z"/>
<path d="M1435 4150 c-4 -7 -18 -9 -31 -6 -14 4 -24 2 -24 -4 0 -5 7 -10 16
-10 8 0 13 -4 10 -9 -4 -5 3 -7 15 -4 11 3 23 12 26 20 7 18 -3 28 -12 13z"/>
<path d="M4346 3986 c10 -8 21 -12 24 -10 5 6 -21 24 -34 24 -6 0 -1 -6 10
-14z"/>
<path d="M473 3921 c1 -21 8 -36 17 -39 12 -4 13 -2 3 9 -6 8 -13 25 -16 39
-4 17 -5 15 -4 -9z"/>
<path d="M4500 3871 c5 -11 15 -23 21 -27 6 -3 3 5 -6 20 -20 30 -30 35 -15 7z"/>
<path d="M1788 3763 c7 -3 16 -2 19 1 4 3 -2 6 -13 5 -11 0 -14 -3 -6 -6z"/>
<path d="M4240 3716 c0 -2 7 -9 15 -16 9 -7 15 -8 15 -2 0 5 -7 12 -15 16 -8
3 -15 4 -15 2z"/>
<path d="M3836 3461 c-4 -7 -5 -15 -2 -18 9 -9 19 4 14 18 -4 11 -6 11 -12 0z"/>
<path d="M4030 3386 c0 -26 4 -36 16 -36 11 0 14 8 12 32 -4 46 -28 49 -28 4z"/>
<path d="M1690 3402 c0 -5 7 -9 15 -9 8 0 12 4 9 9 -3 4 -9 8 -15 8 -5 0 -9
-4 -9 -8z"/>
<path d="M3710 3395 c-15 -19 -11 -25 12 -16 11 4 14 11 9 19 -6 10 -10 10
-21 -3z"/>
<path d="M3990 3390 c0 -5 5 -10 10 -10 6 0 10 5 10 10 0 6 -4 10 -10 10 -5 0
-10 -4 -10 -10z"/>
<path d="M3996 3298 c6 -58 14 -61 14 -5 0 26 -4 47 -9 47 -5 0 -7 -19 -5 -42z"/>
<path d="M4030 3293 c0 -21 3 -48 6 -60 12 -43 24 -23 24 37 0 47 -3 60 -15
60 -11 0 -15 -11 -15 -37z"/>
<path d="M1323 3285 c0 -22 2 -30 4 -17 2 12 2 30 0 40 -3 9 -5 -1 -4 -23z"/>
<path d="M1340 3259 c0 -45 -4 -65 -16 -73 -14 -10 -13 -14 5 -30 l21 -19 0
91 c0 51 -2 92 -5 92 -3 0 -5 -28 -5 -61z"/>
<path d="M4037 3179 c7 -7 15 -10 18 -7 3 3 -2 9 -12 12 -14 6 -15 5 -6 -5z"/>
<path d="M4081 3174 c0 -11 3 -14 6 -6 3 7 2 16 -1 19 -3 4 -6 -2 -5 -13z"/>
<path d="M4045 3120 c-3 -5 -1 -10 4 -10 6 0 11 5 11 10 0 6 -2 10 -4 10 -3 0
-8 -4 -11 -10z"/>
<path d="M4083 3040 c0 -30 2 -43 4 -27 2 15 2 39 0 55 -2 15 -4 2 -4 -28z"/>
<path d="M4040 3000 c0 -46 -4 -61 -17 -69 -10 -5 -14 -13 -10 -17 15 -15 36
22 45 78 5 32 7 60 4 63 -15 15 -22 -1 -22 -55z"/>
<path d="M3920 2955 c0 -19 5 -35 10 -35 6 0 10 16 10 35 0 19 -4 35 -10 35
-5 0 -10 -16 -10 -35z"/>
<path d="M3892 2950 c0 -19 2 -27 5 -17 2 9 2 25 0 35 -3 9 -5 1 -5 -18z"/>
<path d="M4250 2815 c0 -20 23 -29 55 -21 42 11 31 36 -15 36 -29 0 -40 -4
-40 -15z"/>
<path d="M4377 2823 c-12 -11 -8 -23 8 -23 8 0 15 7 15 15 0 16 -12 20 -23 8z"/>
<path d="M3870 2731 c0 -28 17 -35 29 -13 11 21 6 32 -16 32 -7 0 -13 -9 -13
-19z"/>
<path d="M4130 2742 c0 -6 6 -12 13 -15 8 -3 7 -10 -7 -26 -22 -24 -10 -48 18
-38 21 8 15 81 -8 85 -9 2 -16 -1 -16 -6z"/>
<path d="M4280 2705 c0 -30 3 -35 24 -35 19 0 22 4 18 25 -4 22 -1 25 24 26
l29 1 -30 8 c-59 15 -65 13 -65 -25z"/>
<path d="M4412 2681 c2 -23 6 -41 11 -41 11 0 8 68 -3 75 -7 4 -10 -8 -8 -34z"/>
<path d="M3870 2670 c0 -4 3 -10 7 -14 4 -4 6 -25 4 -46 -2 -35 0 -40 18 -40
17 0 21 6 21 35 0 19 -5 35 -11 35 -6 0 -8 8 -5 18 4 13 1 18 -14 18 -11 0
-20 -3 -20 -6z"/>
<path d="M4294 2640 c-25 -10 -35 -31 -25 -49 11 -17 61 -4 55 14 -6 16 12 29
21 15 11 -18 23 -11 18 10 -6 21 -32 25 -69 10z"/>
<path d="M4053 2360 c0 -200 2 -243 8 -175 4 50 4 169 0 265 l-8 175 0 -265z"/>
<path d="M4140 2610 c0 -5 9 -10 19 -10 11 0 23 5 26 10 4 6 -5 10 -19 10 -14
0 -26 -4 -26 -10z"/>
<path d="M4414 2568 c3 -13 6 -88 7 -168 l2 -145 9 135 c9 140 5 200 -14 200
-6 0 -8 -9 -4 -22z"/>
<path d="M4139 2570 c-1 -3 -3 -35 -4 -72 -1 -50 2 -68 12 -68 9 0 13 15 13
46 0 38 3 45 18 42 19 -3 42 9 42 21 0 5 -11 6 -25 3 -18 -3 -30 1 -40 14 -8
11 -15 17 -16 14z"/>
<path d="M4271 2561 c-21 -14 -5 -41 24 -41 29 0 45 27 24 41 -8 5 -18 9 -24
9 -5 0 -16 -4 -24 -9z"/>
<path d="M3892 2520 c3 -16 1 -30 -4 -30 -4 0 -8 -7 -8 -15 0 -8 8 -15 18 -15
15 0 19 8 19 45 0 33 -4 45 -15 45 -10 0 -13 -8 -10 -30z"/>
<path d="M4463 2485 c0 -33 2 -45 4 -27 2 18 2 45 0 60 -2 15 -4 0 -4 -33z"/>
<path d="M4277 2473 c-16 -15 -6 -33 18 -33 18 0 25 5 25 20 0 20 -28 28 -43
13z"/>
<path d="M4090 2445 c0 -8 5 -15 10 -15 6 0 10 7 10 15 0 8 -4 15 -10 15 -5 0
-10 -7 -10 -15z"/>
<path d="M1320 2415 c0 -9 6 -12 15 -9 8 4 12 10 9 15 -8 14 -24 10 -24 -6z"/>
<path d="M4085 2390 c-3 -5 1 -10 9 -10 9 0 16 5 16 10 0 6 -4 10 -9 10 -6 0
-13 -4 -16 -10z"/>
<path d="M4277 2380 c3 -13 14 -20 29 -20 28 0 30 6 10 26 -22 21 -45 18 -39
-6z"/>
<path d="M4095 2360 c3 -5 8 -10 11 -10 2 0 4 5 4 10 0 6 -5 10 -11 10 -5 0
-7 -4 -4 -10z"/>
<path d="M4464 2150 c0 -113 2 -159 3 -102 2 56 2 148 0 205 -1 56 -3 10 -3
-103z"/>
<path d="M4280 2312 c0 -4 12 -8 28 -9 23 -1 24 -1 7 7 -26 11 -35 12 -35 2z"/>
<path d="M1252 2285 c0 -16 2 -22 5 -12 2 9 2 23 0 30 -3 6 -5 -1 -5 -18z"/>
<path d="M4270 2240 c0 -5 11 -10 25 -10 14 0 25 5 25 10 0 6 -11 10 -25 10
-14 0 -25 -4 -25 -10z"/>
<path d="M1260 2170 c0 -5 5 -10 11 -10 5 0 7 5 4 10 -3 6 -8 10 -11 10 -2 0
-4 -4 -4 -10z"/>
<path d="M4133 2158 c2 -7 10 -13 17 -13 7 0 15 6 18 13 2 7 -5 12 -18 12 -13
0 -20 -5 -17 -12z"/>
<path d="M4259 2153 c-12 -15 -12 -16 4 -10 10 4 27 7 38 7 10 0 19 5 19 10 0
16 -47 11 -61 -7z"/>
<path d="M1194 2136 c-3 -7 -4 -35 -2 -62 l3 -49 5 63 c5 63 4 73 -6 48z"/>
<path d="M1353 2065 c0 -27 2 -38 4 -22 2 15 2 37 0 50 -2 12 -4 0 -4 -28z"/>
<path d="M3970 2077 c0 -9 7 -14 15 -13 20 3 20 20 1 24 -9 2 -16 -3 -16 -11z"/>
<path d="M4130 2080 c0 -5 9 -10 20 -10 11 0 20 5 20 10 0 6 -9 10 -20 10 -11
0 -20 -4 -20 -10z"/>
<path d="M4270 2000 c0 -5 9 -10 19 -10 11 0 23 5 26 10 4 6 -5 10 -19 10 -14
0 -26 -4 -26 -10z"/>
<path d="M4063 1885 c0 -44 2 -61 4 -37 2 23 2 59 0 80 -2 20 -4 1 -4 -43z"/>
<path d="M1178 1943 c7 -3 16 -2 19 1 4 3 -2 6 -13 5 -11 0 -14 -3 -6 -6z"/>
<path d="M1347 1921 c-2 -10 -1 -25 4 -32 6 -10 9 -4 9 19 0 36 -5 42 -13 13z"/>
<path d="M1191 1713 c1 -48 4 -113 9 -143 6 -44 7 -26 9 82 0 82 -3 139 -9
143 -6 4 -10 -25 -9 -82z"/>
<path d="M4375 1790 c-4 -6 5 -10 20 -10 15 0 24 4 20 10 -3 6 -12 10 -20 10
-8 0 -17 -4 -20 -10z"/>
<path d="M4446 1678 c3 -12 6 -42 6 -67 -1 -25 3 -48 8 -51 6 -4 6 -27 1 -58
-6 -39 -5 -55 5 -63 10 -8 12 8 9 86 -4 90 -19 175 -31 175 -3 0 -2 -10 2 -22z"/>
<path d="M1373 1635 c0 -22 2 -30 4 -17 2 12 2 30 0 40 -3 9 -5 -1 -4 -23z"/>
<path d="M1402 1640 c0 -19 2 -27 5 -17 2 9 2 25 0 35 -3 9 -5 1 -5 -18z"/>
<path d="M1440 1646 c0 -31 6 -34 13 -6 3 11 1 23 -4 26 -5 3 -9 -6 -9 -20z"/>
<path d="M943 1643 c-7 -3 -13 -11 -13 -19 0 -18 8 -18 26 0 15 16 7 26 -13
19z"/>
<path d="M891 1618 c-5 -15 -4 -26 3 -30 8 -6 7 -10 -2 -16 -9 -6 -12 -25 -10
-53 3 -40 6 -44 32 -47 18 -2 34 3 47 17 21 22 25 66 8 76 -6 4 -8 13 -5 21 4
10 -3 14 -25 14 -26 0 -30 3 -26 20 7 27 -12 25 -22 -2z"/>
<path d="M980 1575 c0 -8 4 -15 9 -15 5 0 14 7 21 15 10 13 9 15 -9 15 -12 0
-21 -6 -21 -15z"/>
<path d="M1333 1535 c0 -33 2 -45 4 -27 2 18 2 45 0 60 -2 15 -4 0 -4 -33z"/>
<path d="M1430 1558 c0 -19 2 -20 10 -8 13 19 13 30 0 30 -5 0 -10 -10 -10
-22z"/>
<path d="M1110 1465 c-16 -19 -11 -19 31 0 33 14 33 14 8 15 -15 0 -32 -7 -39
-15z"/>
<path d="M4506 1445 c8 -37 14 -45 14 -19 0 10 -5 26 -10 34 -8 11 -9 7 -4
-15z"/>
<path d="M440 1425 c-7 -9 -10 -18 -7 -21 3 -3 10 4 17 15 13 25 8 27 -10 6z"/>
<path d="M4517 1380 c8 -29 25 -37 21 -9 -1 12 -8 24 -15 26 -7 3 -9 -3 -6
-17z"/>
<path d="M398 1361 c-5 -18 -8 -45 -8 -60 1 -23 2 -24 11 -8 6 9 9 36 7 60
l-3 42 -7 -34z"/>
<path d="M4348 1383 c7 -3 16 -2 19 1 4 3 -2 6 -13 5 -11 0 -14 -3 -6 -6z"/>
<path d="M1260 1369 c0 -5 5 -7 10 -4 6 3 10 8 10 11 0 2 -4 4 -10 4 -5 0 -10
-5 -10 -11z"/>
<path d="M1055 1327 c-4 -10 -5 -21 -1 -24 10 -10 18 4 13 24 -4 17 -4 17 -12
0z"/>
<path d="M4455 1330 c3 -5 8 -10 11 -10 2 0 4 5 4 10 0 6 -5 10 -11 10 -5 0
-7 -4 -4 -10z"/>
<path d="M4390 1285 c0 -37 3 -45 19 -45 17 0 18 4 10 38 -5 20 -9 40 -9 45 0
4 -4 7 -10 7 -5 0 -10 -20 -10 -45z"/>
<path d="M1121 1304 c0 -11 3 -14 6 -6 3 7 2 16 -1 19 -3 4 -6 -2 -5 -13z"/>
<path d="M1152 1300 c0 -14 2 -19 5 -12 2 6 2 18 0 25 -3 6 -5 1 -5 -13z"/>
<path d="M4531 1252 c-1 -46 3 -71 9 -67 6 4 10 -7 10 -24 0 -17 5 -31 10 -31
13 0 13 48 -1 107 -21 88 -28 92 -28 15z"/>
<path d="M1058 1273 c7 -3 16 -2 19 1 4 3 -2 6 -13 5 -11 0 -14 -3 -6 -6z"/>
<path d="M590 1250 c0 -5 5 -10 11 -10 5 0 7 5 4 10 -3 6 -8 10 -11 10 -2 0
-4 -4 -4 -10z"/>
<path d="M4220 1220 c0 -5 5 -10 10 -10 6 0 10 5 10 10 0 6 -4 10 -10 10 -5 0
-10 -4 -10 -10z"/>
<path d="M4434 1219 c-3 -5 -4 -9 -2 -10 28 -6 57 -6 53 0 -8 13 -44 20 -51
10z"/>
<path d="M594 1184 c3 -9 7 -28 7 -42 1 -27 1 -27 8 3 8 34 4 55 -11 55 -6 0
-7 -7 -4 -16z"/>
<path d="M625 1020 c3 -5 8 -10 11 -10 2 0 4 5 4 10 0 6 -5 10 -11 10 -5 0 -7
-4 -4 -10z"/>
<path d="M523 887 c-13 -5 -23 -13 -23 -17 0 -13 58 -9 64 5 7 18 -14 24 -41
12z"/>
<path d="M4685 760 c-3 -5 -1 -10 4 -10 6 0 11 5 11 10 0 6 -2 10 -4 10 -3 0
-8 -4 -11 -10z"/>
<path d="M4570 715 c0 -8 9 -15 20 -15 11 0 20 7 20 15 0 8 -9 15 -20 15 -11
0 -20 -7 -20 -15z"/>
<path d="M4630 715 c0 -8 5 -15 10 -15 6 0 10 7 10 15 0 8 -4 15 -10 15 -5 0
-10 -7 -10 -15z"/>
<path d="M4690 720 c0 -5 4 -10 9 -10 6 0 13 5 16 10 3 6 -1 10 -9 10 -9 0
-16 -4 -16 -10z"/>
<path d="M4780 660 c-13 -8 -13 -10 2 -10 9 0 20 5 23 10 8 13 -5 13 -25 0z"/>
<path d="M160 640 c0 -5 4 -10 9 -10 6 0 13 5 16 10 3 6 -1 10 -9 10 -9 0 -16
-4 -16 -10z"/>
<path d="M562 593 c32 -2 84 -2 116 0 31 2 5 3 -58 3 -63 0 -89 -1 -58 -3z"/>
<path d="M4720 560 c0 -5 6 -10 14 -10 8 0 18 5 21 10 3 6 -3 10 -14 10 -12 0
-21 -4 -21 -10z"/>
<path d="M742 528 c-9 -9 -58 -14 -159 -15 -80 -1 -148 -4 -151 -7 -16 -17 29
-21 226 -22 190 -2 212 0 177 11 l-40 13 38 1 c20 1 37 5 37 10 0 22 -108 29
-128 9z"/>
<path d="M553 443 c9 -2 25 -2 35 0 9 3 1 5 -18 5 -19 0 -27 -2 -17 -5z"/>
<path d="M707 423 c18 -2 50 -2 70 0 21 2 7 4 -32 4 -38 0 -55 -2 -38 -4z"/>
<path d="M1408 423 c18 -2 45 -2 60 0 15 2 0 4 -33 4 -33 0 -45 -2 -27 -4z"/>
<path d="M1538 423 c12 -2 30 -2 40 0 9 3 -1 5 -23 4 -22 0 -30 -2 -17 -4z"/>
<path d="M4538 413 c23 -2 61 -2 85 0 23 2 4 4 -43 4 -47 0 -66 -2 -42 -4z"/>
<path d="M2533 363 c9 -2 23 -2 30 0 6 3 -1 5 -18 5 -16 0 -22 -2 -12 -5z"/>
<path d="M2598 353 c12 -2 30 -2 40 0 9 3 -1 5 -23 4 -22 0 -30 -2 -17 -4z"/>
<path d="M4215 340 l-20 -9 20 -1 20 -1 -20 -9 c-15 -7 -10 -9 23 -9 23 -1 42
4 42 10 0 5 -4 7 -10 4 -6 -3 -7 1 -4 9 7 18 -17 20 -51 6z"/>
<path d="M290 238 c0 -7 5 -20 10 -28 8 -12 10 -11 10 7 0 12 -4 25 -10 28 -5
3 -10 0 -10 -7z"/>
<path d="M4793 130 c-25 -10 -30 -39 -11 -58 15 -15 32 -16 23 -2 -4 6 18 11
57 11 50 2 56 3 27 8 -29 5 -36 10 -34 29 2 24 -21 29 -62 12z"/>
</g>
</svg>
